REM DIRINDEX 1\2\4,1\2\5,1\3\6,1\3\7,1\3\8
REM DIRNAME folder01,folder02,folder03,folder04,folder05,folder06,folder07,folder08
TITLE ""
FILE "LEVEL6-008-midashigo.mp3" MP3
  TRACK 01 AUDIO
    TITLE "0:"
    INDEX 01 00:00:00
  TRACK 02 AUDIO
    TITLE "6:cjc092_4460"
    INDEX 01 00:00:01
  TRACK 03 AUDIO
    TITLE "0:"
    INDEX 01 00:03:02
  TRACK 04 AUDIO
    TITLE "7:cjc092_4461"
    INDEX 01 00:03:53
  TRACK 05 AUDIO
    TITLE "8:cjc092_4462"
    INDEX 01 00:05:09
  TRACK 06 AUDIO
    TITLE "0:"
    INDEX 01 00:07:35
  TRACK 07 AUDIO
    TITLE "7:cjc092_4463"
    INDEX 01 00:07:66
  TRACK 08 AUDIO
    TITLE "8:cjc092_4464"
    INDEX 01 00:09:34
  TRACK 09 AUDIO
    TITLE "0:"
    INDEX 01 00:10:59
  TRACK 10 AUDIO
    TITLE "7:cjc092_4465"
    INDEX 01 00:11:21
  TRACK 11 AUDIO
    TITLE "8:cjc092_4466"
    INDEX 01 00:12:67
  TRACK 12 AUDIO
    TITLE "0:"
    INDEX 01 00:14:09
  TRACK 13 AUDIO
    TITLE "7:cjc092_4467"
    INDEX 01 00:14:49
  TRACK 14 AUDIO
    TITLE "8:cjc092_4468"
    INDEX 01 00:16:20
  TRACK 15 AUDIO
    TITLE "0:"
    INDEX 01 00:18:50
  TRACK 16 AUDIO
    TITLE "7:cjc092_4469"
    INDEX 01 00:19:11
  TRACK 17 AUDIO
    TITLE "8:cjc092_4470"
    INDEX 01 00:20:32
  TRACK 18 AUDIO
    TITLE "0:"
    INDEX 01 00:21:19
  TRACK 19 AUDIO
    TITLE "7:cjc092_4471"
    INDEX 01 00:21:57
  TRACK 20 AUDIO
    TITLE "8:cjc092_4472"
    INDEX 01 00:23:24
  TRACK 21 AUDIO
    TITLE "0:"
    INDEX 01 00:24:74
  TRACK 22 AUDIO
    TITLE "7:cjc092_4473"
    INDEX 01 00:25:33
  TRACK 23 AUDIO
    TITLE "8:cjc092_4474"
    INDEX 01 00:26:64
  TRACK 24 AUDIO
    TITLE "0:"
    INDEX 01 00:28:35
  TRACK 25 AUDIO
    TITLE "7:cjc092_4475"
    INDEX 01 00:28:70
  TRACK 26 AUDIO
    TITLE "8:cjc092_4476"
    INDEX 01 00:30:44
  TRACK 27 AUDIO
    TITLE "0:"
    INDEX 01 00:32:68
  TRACK 28 AUDIO
    TITLE "7:cjc092_4477"
    INDEX 01 00:33:30
  TRACK 29 AUDIO
    TITLE "8:cjc092_4478"
    INDEX 01 00:34:51
  TRACK 30 AUDIO
    TITLE "0:"
    INDEX 01 00:35:59
  TRACK 31 AUDIO
    TITLE "7:cjc092_4479"
    INDEX 01 00:36:21
  TRACK 32 AUDIO
    TITLE "8:cjc092_4480"
    INDEX 01 00:37:48
  TRACK 33 AUDIO
    TITLE "0:"
    INDEX 01 00:38:53
  TRACK 34 AUDIO
    TITLE "7:cjc092_4481"
    INDEX 01 00:39:09
  TRACK 35 AUDIO
    TITLE "8:cjc092_4482"
    INDEX 01 00:40:60
  TRACK 36 AUDIO
    TITLE "0:"
    INDEX 01 00:42:70
  TRACK 37 AUDIO
    TITLE "7:cjc092_4483"
    INDEX 01 00:43:33
  TRACK 38 AUDIO
    TITLE "8:cjc092_4484"
    INDEX 01 00:44:73
  TRACK 39 AUDIO
    TITLE "0:"
    INDEX 01 00:48:67
  TRACK 40 AUDIO
    TITLE "7:cjc092_4485"
    INDEX 01 00:49:29
  TRACK 41 AUDIO
    TITLE "8:cjc092_4486"
    INDEX 01 00:50:50
  TRACK 42 AUDIO
    TITLE "0:"
    INDEX 01 00:53:47
  TRACK 43 AUDIO
    TITLE "7:cjc092_4487"
    INDEX 01 00:54:09
  TRACK 44 AUDIO
    TITLE "8:cjc092_4488"
    INDEX 01 00:55:53
  TRACK 45 AUDIO
    TITLE "0:"
    INDEX 01 00:56:59
  TRACK 46 AUDIO
    TITLE "7:cjc092_4489"
    INDEX 01 00:57:21
  TRACK 47 AUDIO
    TITLE "8:cjc092_4490"
    INDEX 01 00:58:67
  TRACK 48 AUDIO
    TITLE "0:"
    INDEX 01 01:00:37
  TRACK 49 AUDIO
    TITLE "7:cjc092_4491"
    INDEX 01 01:01:01
  TRACK 50 AUDIO
    TITLE "8:cjc092_4492"
    INDEX 01 01:02:57
  TRACK 51 AUDIO
    TITLE "0:"
    INDEX 01 01:05:21
  TRACK 52 AUDIO
    TITLE "7:cjc092_4493"
    INDEX 01 01:05:54
  TRACK 53 AUDIO
    TITLE "8:cjc092_4494"
    INDEX 01 01:06:67
  TRACK 54 AUDIO
    TITLE "0:"
    INDEX 01 01:08:11
  TRACK 55 AUDIO
    TITLE "7:cjc092_4495"
    INDEX 01 01:08:48
  TRACK 56 AUDIO
    TITLE "8:cjc092_4496"
    INDEX 01 01:09:65
  TRACK 57 AUDIO
    TITLE "0:"
    INDEX 01 01:12:44
  TRACK 58 AUDIO
    TITLE "7:cjc092_4497"
    INDEX 01 01:13:06
  TRACK 59 AUDIO
    TITLE "8:cjc092_4498"
    INDEX 01 01:14:17
  TRACK 60 AUDIO
    TITLE "0:"
    INDEX 01 01:19:34
